{
  "accessors": [
    {
      "bufferView": 2,
      "componentType": 5126,
      "count": 65532,
      "max": [
        0.6535146832466125,
        0.07266154140233994,
        0.6699203252792358
      ],
      "min": [
        -0.6147838234901428,
        -0.12155857682228088,
        -0.6812319159507751
      ],
      "type": "VEC3"
    },
    {
      "bufferView": 2,
      "byteOffset": 786384,
      "componentType": 5126,
      "count": 65532,
      "max": [
        0.9988265037536621,
        0.9999998211860657,
        0.9592815041542053
      ],
      "min": [
        -0.9358343482017517,
        -1.0,
        -0.9994275569915771
      ],
      "type": "VEC3"
    },
    {
      "bufferView": 3,
      "componentType": 5126,
      "count": 65532,
      "max": [
        0.999997079372406,
        0.9931107759475708,
        0.9999991059303284,
        1.0
      ],
      "min": [
        -0.9999987483024597,
        -0.9959812760353088,
        -0.9999951720237732,
        1.0
      ],
      "type": "VEC4"
    },
    {
      "bufferView": 1,
      "componentType": 5126,
      "count": 65532,
      "max": [
        0.9981158971786499,
        0.9321253299713135
      ],
      "min": [
        0.0012160837650299072,
        0.010977371595799923
      ],
      "type": "VEC2"
    },
    {
      "bufferView": 1,
      "byteOffset": 524256,
      "componentType": 5126,
      "count": 65532,
      "max": [
        0.9981158971786499,
        0.9321253299713135
      ],
      "min": [
        0.0012160837650299072,
        0.010977371595799923
      ],
      "type": "VEC2"
    },
    {
      "bufferView": 0,
      "componentType": 5125,
      "count": 332841,
      "type": "SCALAR"
    },
    {
      "bufferView": 2,
      "byteOffset": 1572768,
      "componentType": 5126,
      "count": 65532,
      "max": [
        0.5392114520072937,
        0.07346668094396591,
        0.598564863204956
      ],
      "min": [
        -0.634421169757843,
        -0.12150854617357254,
        -0.6812319159507751
      ],
      "type": "VEC3"
    },
    {
      "bufferView": 2,
      "byteOffset": 2359152,
      "componentType": 5126,
      "count": 65532,
      "max": [
        0.9080532789230347,
        0.9999999403953552,
        0.9210976362228394
      ],
      "min": [
        -0.9998950362205505,
        -1.0,
        -0.9998739957809448
      ],
      "type": "VEC3"
    },
    {
      "bufferView": 3,
      "byteOffset": 1048512,
      "componentType": 5126,
      "count": 65532,
      "max": [
        0.9999948143959045,
        0.9968766570091248,
        0.9999996423721313,
        1.0
      ],
      "min": [
        -0.9999923706054688,
        -0.9017096757888794,
        -0.9999852180480957,
        -1.0
      ],
      "type": "VEC4"
    },
    {
      "bufferView": 1,
      "byteOffset": 1048512,
      "componentType": 5126,
      "count": 65532,
      "max": [
        0.9999275803565979,
        0.9646400213241577
      ],
      "min": [
        0.00010347366333007813,
        0.05039620399475098
      ],
      "type": "VEC2"
    },
    {
      "bufferView": 1,
      "byteOffset": 1572768,
      "componentType": 5126,
      "count": 65532,
      "max": [
        0.9999275803565979,
        0.9646400213241577
      ],
      "min": [
        0.00010347366333007813,
        0.05039620399475098
      ],
      "type": "VEC2"
    },
    {
      "bufferView": 0,
      "byteOffset": 1331364,
      "componentType": 5125,
      "count": 339942,
      "type": "SCALAR"
    },
    {
      "bufferView": 2,
      "byteOffset": 3145536,
      "componentType": 5126,
      "count": 51330,
      "max": [
        0.6576794385910034,
        0.07325062900781631,
        0.67400723695755
      ],
      "min": [
        -0.634421169757843,
        -0.12154175341129303,
        -0.5965958833694458
      ],
      "type": "VEC3"
    },
    {
      "bufferView": 2,
      "byteOffset": 3761496,
      "componentType": 5126,
      "count": 51330,
      "max": [
        0.9999908208847046,
        0.9999998211860657,
        0.9998006224632263
      ],
      "min": [
        -0.9999799132347107,
        -0.9999998807907104,
        -0.9997184872627258
      ],
      "type": "VEC3"
    },
    {
      "bufferView": 3,
      "byteOffset": 2097024,
      "componentType": 5126,
      "count": 51330,
      "max": [
        0.9999724626541138,
        0.9932636618614197,
        0.9999815225601196,
        1.0
      ],
      "min": [
        -0.9999257326126099,
        -0.9999622106552124,
        -0.9999764561653137,
        1.0
      ],
      "type": "VEC4"
    },
    {
      "bufferView": 1,
      "byteOffset": 2097024,
      "componentType": 5126,
      "count": 51330,
      "max": [
        0.997522234916687,
        0.9485979676246643
      ],
      "min": [
        0.0021278858184814453,
        5.239434540271759e-05
      ],
      "type": "VEC2"
    },
    {
      "bufferView": 1,
      "byteOffset": 2507664,
      "componentType": 5126,
      "count": 51330,
      "max": [
        0.997522234916687,
        0.9485979676246643
      ],
      "min": [
        0.0021278858184814453,
        5.239434540271759e-05
      ],
      "type": "VEC2"
    },
    {
      "bufferView": 0,
      "byteOffset": 2691132,
      "componentType": 5125,
      "count": 227217,
      "type": "SCALAR"
    }
  ],
  "asset": {
    "extras": {
      "author": "Frank McMains (https://sketchfab.com/frankmcmains)",
      "license": "CC-BY-4.0 (http://creativecommons.org/licenses/by/4.0/)",
      "source": "https://sketchfab.com/3d-models/bronze-coin-of-bruttium-11f85253120f4accabaa7027f6da9330",
      "title": "Bronze Coin of Bruttium"
    },
    "generator": "Sketchfab-15.33.0",
    "version": "2.0"
  },
  "bufferViews": [
    {
      "buffer": 0,
      "byteLength": 3600000,
      "name": "floatBufferViews",
      "target": 34963
    },
    {
      "buffer": 0,
      "byteLength": 2918304,
      "byteOffset": 3600000,
      "byteStride": 8,
      "name": "floatBufferViews",
      "target": 34962
    },
    {
      "buffer": 0,
      "byteLength": 4377456,
      "byteOffset": 6518304,
      "byteStride": 12,
      "name": "floatBufferViews",
      "target": 34962
    },
    {
      "buffer": 0,
      "byteLength": 2918304,
      "byteOffset": 10895760,
      "byteStride": 16,
      "name": "floatBufferViews",
      "target": 34962
    }
  ],
  "buffers": [
    {
      "byteLength": 13814064,
      "uri": "scene.bin"
    }
  ],
  "images": [
    {
      "uri": "textures/material0_baseColor.jpeg"
    },
    {
      "uri": "textures/material0_metallicRoughness.png"
    },
    {
      "uri": "textures/material0_normal.jpeg"
    }
  ],
  "materials": [
    {
      "doubleSided": true,
      "name": "material0",
      "normalTexture": {
        "index": 2,
        "texCoord": 1
      },
      "occlusionTexture": {
        "index": 1
      },
      "pbrMetallicRoughness": {
        "baseColorTexture": {
          "index": 0
        },
        "metallicRoughnessTexture": {
          "index": 1
        },
        "roughnessFactor": 0.5619685696146722
      }
    }
  ],
  "meshes": [
    {
      "name": "Model_material0_0",
      "primitives": [
        {
          "attributes": {
            "NORMAL": 1,
            "POSITION": 0,
            "TANGENT": 2,
            "TEXCOORD_0": 3,
            "TEXCOORD_1": 4
          },
          "indices": 5,
          "material": 0,
          "mode": 4
        }
      ]
    },
    {
      "name": "Model_material0_0",
      "primitives": [
        {
          "attributes": {
            "NORMAL": 7,
            "POSITION": 6,
            "TANGENT": 8,
            "TEXCOORD_0": 9,
            "TEXCOORD_1": 10
          },
          "indices": 11,
          "material": 0,
          "mode": 4
        }
      ]
    },
    {
      "name": "Model_material0_0",
      "primitives": [
        {
          "attributes": {
            "NORMAL": 13,
            "POSITION": 12,
            "TANGENT": 14,
            "TEXCOORD_0": 15,
            "TEXCOORD_1": 16
          },
          "indices": 17,
          "material": 0,
          "mode": 4
        }
      ]
    }
  ],
  "nodes": [
    {
      "children": [
        1
      ],
      "matrix": [
        0.9851400256156921,
        -0.17175321280956268,
        -3.813687428290417e-17,
        0.0,
        0.0,
        2.220446049250313e-16,
        -1.0,
        0.0,
        0.17175321280956268,
        0.9851400256156921,
        2.1874502778367158e-16,
        0.0,
        0.0,
        0.0,
        0.0,
        1.0
      ],
      "name": "Sketchfab_model"
    },
    {
      "children": [
        2
      ],
      "matrix": [
        1.0,
        0.0,
        0.0,
        0.0,
        0.0,
        -1.0,
        0.0,
        0.0,
        0.0,
        0.0,
        -1.0,
        0.0,
        0.0,
        0.0,
        0.0,
        1.0
      ],
      "name": "model.fbx"
    },
    {
      "children": [
        3
      ],
      "name": "RootNode"
    },
    {
      "children": [
        4,
        5,
        6
      ],
      "name": "Model"
    },
    {
      "mesh": 0,
      "name": "Model_material0_0"
    },
    {
      "mesh": 1,
      "name": "Model_material0_0"
    },
    {
      "mesh": 2,
      "name": "Model_material0_0"
    }
  ],
  "samplers": [
    {
      "magFilter": 9729,
      "minFilter": 9987,
      "wrapS": 10497,
      "wrapT": 10497
    }
  ],
  "scene": 0,
  "scenes": [
    {
      "name": "Sketchfab_Scene",
      "nodes": [
        0
      ]
    }
  ],
  "textures": [
    {
      "sampler": 0,
      "source": 0
    },
    {
      "sampler": 0,
      "source": 1
    },
    {
      "sampler": 0,
      "source": 2
    }
  ]
}
