{
  "asset": {
    "generator": "glTF-Transform v4.2.1",
    "version": "2.0",
    "extras": {
      "author": "Frank McMains (https://sketchfab.com/frankmcmains)",
      "license": "CC-BY-4.0 (http://creativecommons.org/licenses/by/4.0/)",
      "source": "https://sketchfab.com/3d-models/bronze-coin-of-bruttium-11f85253120f4accabaa7027f6da9330",
      "title": "Bronze Coin of Bruttium"
    }
  },
  "accessors": [
    {
      "type": "SCALAR",
      "componentType": 5123,
      "count": 218238,
      "bufferView": 0,
      "byteOffset": 0
    },
    {
      "type": "VEC3",
      "componentType": 5126,
      "count": 38433,
      "bufferView": 1,
      "byteOffset": 0
    },
    {
      "type": "VEC3",
      "componentType": 5126,
      "count": 38433,
      "max": [
        0.6576258540153503,
        0.07347674667835236,
        0.6738417744636536
      ],
      "min": [
        -0.634421169757843,
        -0.12155857682228088,
        -0.6812319159507751
      ],
      "bufferView": 1,
      "byteOffset": 12
    },
    {
      "type": "VEC4",
      "componentType": 5126,
      "count": 38433,
      "bufferView": 1,
      "byteOffset": 24
    },
    {
      "type": "VEC2",
      "componentType": 5126,
      "count": 38433,
      "bufferView": 1,
      "byteOffset": 40
    },
    {
      "type": "VEC2",
      "componentType": 5126,
      "count": 38433
    },
    {
      "type": "VEC2",
      "componentType": 5126,
      "count": 38428,
      "bufferView": 2,
      "byteOffset": 0
    }
  ],
  "bufferViews": [
    {
      "buffer": 0,
      "byteOffset": 0,
      "byteLength": 436476,
      "target": 34963
    },
    {
      "buffer": 0,
      "byteOffset": 436476,
      "byteLength": 1844784,
      "byteStride": 48,
      "target": 34962
    },
    {
      "buffer": 0,
      "byteOffset": 2281260,
      "byteLength": 307424
    }
  ],
  "samplers": [
    {
      "magFilter": 9729,
      "minFilter": 9987,
      "wrapS": 10497,
      "wrapT": 10497
    }
  ],
  "textures": [
    {
      "sampler": 0,
      "extensions": {
        "EXT_texture_webp": {
          "source": 0
        }
      }
    },
    {
      "sampler": 0,
      "extensions": {
        "EXT_texture_webp": {
          "source": 2
        }
      }
    },
    {
      "sampler": 0,
      "extensions": {
        "EXT_texture_webp": {
          "source": 1
        }
      }
    }
  ],
  "images": [
    {
      "mimeType": "image/webp",
      "uri": "textures/material0_baseColor.webp"
    },
    {
      "mimeType": "image/webp",
      "uri": "textures/material0_metallicRoughness.webp"
    },
    {
      "mimeType": "image/webp",
      "uri": "textures/material0_normal.webp"
    }
  ],
  "buffers": [
    {
      "uri": "scene.bin",
      "byteLength": 2588684
    }
  ],
  "materials": [
    {
      "name": "material0",
      "doubleSided": true,
      "pbrMetallicRoughness": {
        "roughnessFactor": 0.5619685696146722,
        "baseColorTexture": {
          "index": 0
        },
        "metallicRoughnessTexture": {
          "index": 2
        }
      },
      "normalTexture": {
        "index": 1,
        "texCoord": 1
      },
      "occlusionTexture": {
        "index": 2
      }
    }
  ],
  "meshes": [
    {
      "name": "Model_material0_0",
      "primitives": [
        {
          "attributes": {
            "NORMAL": 1,
            "POSITION": 2,
            "TANGENT": 3,
            "TEXCOORD_0": 4,
            "TEXCOORD_1": 4
          },
          "mode": 4,
          "material": 0,
          "indices": 0
        }
      ]
    }
  ],
  "nodes": [
    {
      "name": "Model_material0_0",
      "rotation": [
        0.7044749831956894,
        -0.060950783845930785,
        -0.060950783845930806,
        0.7044749831956891
      ],
      "mesh": 0
    }
  ],
  "scenes": [
    {
      "name": "Sketchfab_Scene",
      "nodes": [
        0
      ]
    }
  ],
  "scene": 0,
  "extensionsUsed": [
    "EXT_texture_webp"
  ],
  "extensionsRequired": [
    "EXT_texture_webp"
  ]
}